# xmcd
#
# Track frame offsets:
# 150
# 7348
# 22545
# 42330
# 63095
# 75601
# 83308
# 93100
#
# Disc length: 1510 seconds
#
#
# Revision: 0
# Processed by: cddbd v1.5.2PL0 Copyright (c) Steve Scherf et al.
# Submitted via: FreeRIP 2.945 
#
DISCID=4505e408
DTITLE=Half a Mile - Promised
DYEAR=1900
DGENRE=Christelijk
TTITLE0=Psalm 126: Harvest of sheaves
TTITLE1=The one i'm dying for
TTITLE2=Pslam 13: How long
TTITLE3=The promise
TTITLE4=Friend 'till the end
TTITLE5=Delivered from te hands of Pharaoh
TTITLE6=God rest ye merry gentlemen
TTITLE7=Psalm 95: Come let us
EXTD=
EXTT0=
EXTT1=
EXTT2=
EXTT3=
EXTT4=
EXTT5=
EXTT6=
EXTT7=
PLAYORDER=
